<svg width="217" height="70" viewBox="0 0 217 70" fill="none" xmlns="http://www.w3.org/2000/svg">
<path d="M38.9481 25.3659C45.4418 6.73749 70.8834 25.3659 38.9481 49.3172" stroke="black" stroke-width="2"/>
<path d="M37.6415 17.5578H3.14148V67.8078H37.6415V17.5578Z" fill="#E2AB04" stroke="black" stroke-width="3"/>
<path d="M2.39148 17.1828C2.39148 15.6078 2.39148 14.7078 2.39148 13.8828C2.39148 12.9828 2.58075 12.2842 3.34793 11.9294C4.01532 11.6208 4.70856 11.108 5.36331 10.7518C6.11554 10.3426 7.04202 10.7815 7.84686 10.4248C8.61279 10.0854 9.02832 9.2923 9.03601 8.40782C9.04318 7.58284 9.03168 6.6078 9.03601 5.70781C9.03995 4.89078 9.62762 4.43332 10.5864 4.43282C11.4724 4.43236 12.2848 4.40945 13.1704 4.43282C13.9833 4.45425 14.81 4.76804 15.591 5.34882C16.1927 5.79628 16.5202 5.09964 17.196 4.69731C17.96 4.24251 18.6688 4.02213 19.3099 3.46982C19.908 2.95465 20.5704 2.51761 21.233 2.19844C22.0198 1.8195 23.0634 2.18126 23.8755 2.18281C24.7581 2.18451 25.3507 2.70668 25.9978 3.25181C26.6424 3.79493 27.1392 4.425 28.0098 4.43281C28.8219 4.44011 29.8364 4.12552 30.6643 4.43619C31.3522 4.6943 32.0311 5.24617 32.6797 5.61382C33.3653 6.00243 34.0934 6.28618 34.7292 6.74582C35.4401 7.25975 36.0043 7.72652 36.3603 8.47481C36.7239 9.23909 36.7372 9.991 37.1061 10.7922C37.4609 11.5628 37.829 12.1578 37.829 13.0578C37.829 13.9578 37.829 14.7828 37.829 15.7578L37.8257 16.6544" stroke="black" stroke-width="3"/>
<path d="M9.14148 23.5578V58.0578" stroke="black" stroke-width="2"/>
<path d="M16.2665 25.4328V59.9328" stroke="black" stroke-width="2"/>
<path d="M23.204 26.7453V61.2453" stroke="black" stroke-width="2"/>
<path d="M29.954 28.9953V63.4953" stroke="black" stroke-width="2"/>
<path d="M76.1906 37.1685C76.9623 37.333 77.5822 37.7188 78.0503 38.3261C78.5184 38.9207 78.7524 39.6038 78.7524 40.3755C78.7524 41.4888 78.3603 42.3744 77.5759 43.0322C76.8042 43.6774 75.7225 44 74.3309 44H68.1257V30.6786H74.1222C75.4759 30.6786 76.5322 30.9885 77.2913 31.6084C78.063 32.2283 78.4488 33.0696 78.4488 34.1323C78.4488 34.9166 78.2401 35.5682 77.8226 36.0869C77.4178 36.6055 76.8738 36.9661 76.1906 37.1685ZM71.3706 36.0679H73.496C74.0273 36.0679 74.4322 35.954 74.7105 35.7263C75.0014 35.4859 75.1469 35.138 75.1469 34.6826C75.1469 34.2272 75.0014 33.8793 74.7105 33.6389C74.4322 33.3985 74.0273 33.2784 73.496 33.2784H71.3706V36.0679ZM73.7617 41.3813C74.3056 41.3813 74.7231 41.2611 75.0141 41.0207C75.3177 40.7677 75.4695 40.4071 75.4695 39.9391C75.4695 39.471 75.3114 39.1041 74.9951 38.8384C74.6915 38.5728 74.2677 38.4399 73.7237 38.4399H71.3706V41.3813H73.7617ZM83.8795 33.2784V35.973H88.2251V38.4779H83.8795V41.4002H88.7943V44H80.6345V30.6786H88.7943V33.2784H83.8795ZM94.146 33.2784V35.973H98.4916V38.4779H94.146V41.4002H99.0608V44H90.901V30.6786H99.0608V33.2784H94.146ZM107.961 44L105.191 38.9713H104.412V44H101.168V30.6786H106.614C107.664 30.6786 108.556 30.862 109.289 31.2289C110.036 31.5958 110.592 32.1018 110.959 32.747C111.326 33.3796 111.51 34.088 111.51 34.8724C111.51 35.7579 111.257 36.5486 110.751 37.2444C110.257 37.9402 109.523 38.4336 108.549 38.7246L111.623 44H107.961ZM104.412 36.6751H106.424C107.019 36.6751 107.461 36.5296 107.752 36.2387C108.056 35.9477 108.208 35.5365 108.208 35.0052C108.208 34.4992 108.056 34.1007 107.752 33.8097C107.461 33.5187 107.019 33.3732 106.424 33.3732H104.412V36.6751ZM120.813 33.2784V35.973H125.159V38.4779H120.813V41.4002H125.728V44H117.568V30.6786H125.728V33.2784H120.813ZM135.994 44L133.281 39.9201L130.89 44H127.208L131.478 37.2254L127.113 30.6786H130.89L133.565 34.7016L135.918 30.6786H139.6L135.368 37.3962L139.771 44H135.994ZM151.552 34.9673C151.552 35.739 151.375 36.4474 151.021 37.0926C150.666 37.7252 150.122 38.2375 149.389 38.6297C148.655 39.0219 147.744 39.218 146.656 39.218H144.645V44H141.4V30.6786H146.656C147.719 30.6786 148.617 30.862 149.351 31.2289C150.084 31.5958 150.635 32.1018 151.002 32.747C151.369 33.3922 151.552 34.1323 151.552 34.9673ZM146.409 36.6372C147.029 36.6372 147.491 36.4917 147.795 36.2007C148.098 35.9097 148.25 35.4986 148.25 34.9673C148.25 34.4359 148.098 34.0248 147.795 33.7338C147.491 33.4428 147.029 33.2973 146.409 33.2973H144.645V36.6372H146.409ZM156.486 41.4951H160.737V44H153.241V30.6786H156.486V41.4951ZM168.585 44.1328C167.332 44.1328 166.181 43.8419 165.131 43.2599C164.094 42.678 163.265 41.8683 162.645 40.8309C162.038 39.7809 161.734 38.6044 161.734 37.3013C161.734 35.9983 162.038 34.8281 162.645 33.7907C163.265 32.7533 164.094 31.9437 165.131 31.3617C166.181 30.7798 167.332 30.4888 168.585 30.4888C169.837 30.4888 170.982 30.7798 172.02 31.3617C173.07 31.9437 173.892 32.7533 174.487 33.7907C175.094 34.8281 175.397 35.9983 175.397 37.3013C175.397 38.6044 175.094 39.7809 174.487 40.8309C173.879 41.8683 173.057 42.678 172.02 43.2599C170.982 43.8419 169.837 44.1328 168.585 44.1328ZM168.585 41.1725C169.648 41.1725 170.495 40.8183 171.128 40.1098C171.773 39.4014 172.096 38.4652 172.096 37.3013C172.096 36.1248 171.773 35.1886 171.128 34.4928C170.495 33.7844 169.648 33.4302 168.585 33.4302C167.51 33.4302 166.649 33.7781 166.004 34.4739C165.372 35.1697 165.055 36.1122 165.055 37.3013C165.055 38.4779 165.372 39.4204 166.004 40.1288C166.649 40.8246 167.51 41.1725 168.585 41.1725ZM183.996 44L181.226 38.9713H180.448V44H177.203V30.6786H182.649C183.699 30.6786 184.591 30.862 185.325 31.2289C186.071 31.5958 186.628 32.1018 186.994 32.747C187.361 33.3796 187.545 34.088 187.545 34.8724C187.545 35.7579 187.292 36.5486 186.786 37.2444C186.292 37.9402 185.559 38.4336 184.584 38.7246L187.659 44H183.996ZM180.448 36.6751H182.459C183.054 36.6751 183.496 36.5296 183.787 36.2387C184.091 35.9477 184.243 35.5365 184.243 35.0052C184.243 34.4992 184.091 34.1007 183.787 33.8097C183.496 33.5187 183.054 33.3732 182.459 33.3732H180.448V36.6751ZM192.827 33.2784V35.973H197.172V38.4779H192.827V41.4002H197.742V44H189.582V30.6786H197.742V33.2784H192.827ZM206.642 44L203.871 38.9713H203.093V44H199.848V30.6786H205.295C206.345 30.6786 207.236 30.862 207.97 31.2289C208.717 31.5958 209.273 32.1018 209.64 32.747C210.007 33.3796 210.19 34.088 210.19 34.8724C210.19 35.7579 209.937 36.5486 209.431 37.2444C208.938 37.9402 208.204 38.4336 207.23 38.7246L210.304 44H206.642ZM203.093 36.6751H205.105C205.699 36.6751 206.142 36.5296 206.433 36.2387C206.737 35.9477 206.889 35.5365 206.889 35.0052C206.889 34.4992 206.737 34.1007 206.433 33.8097C206.142 33.5187 205.699 33.3732 205.105 33.3732H203.093V36.6751Z" fill="black"/>
</svg>
